<svg xmlns="http://www.w3.org/2000/svg" width="18" height="20" viewBox="0 0 16">

    <g id="home1">
        <path d="M17.42 8.17999L9.70999 0.299994C9.61703 0.206266 9.50643 0.131872 9.38457 0.0811031C9.26271 0.0303344 9.132 0.00419617 8.99999 0.00419617C8.86798 0.00419617 8.73728 0.0303344 8.61542 0.0811031C8.49356 0.131872 8.38296 0.206266 8.28999 0.299994L0.579993 8.18999C0.39343 8.37806 0.246088 8.60132 0.146521 8.8468C0.0469548 9.09229 -0.00285185 9.3551 -6.70605e-06 9.61999V18C-0.00078153 18.5119 0.194766 19.0046 0.546368 19.3767C0.897969 19.7488 1.37885 19.9718 1.88999 20H16.11C16.6211 19.9718 17.102 19.7488 17.4536 19.3767C17.8052 19.0046 18.0008 18.5119 18 18V9.61999C18.0008 9.08293 17.7928 8.56658 17.42 8.17999ZM6.99999 18V12H11V18H6.99999ZM16 18H13V11C13 10.7348 12.8946 10.4804 12.7071 10.2929C12.5196 10.1054 12.2652 9.99999 12 9.99999H5.99999C5.73478 9.99999 5.48042 10.1054 5.29289 10.2929C5.10535 10.4804 4.99999 10.7348 4.99999 11V18H1.99999V9.57999L8.99999 2.42999L16 9.61999V18Z"
        />
    </g>
    <g id="home2">
        <svg xmlns="http://www.w3.org/2000/svg" width="24" height="24" viewBox="0 0 24 24" fill="none">
            <path d="M14 14H10V21H14V14Z" fill="black"/>
            <path d="M20.42 10.18L12.71 2.29999C12.617 2.20627 12.5064 2.13187 12.3846 2.0811C12.2627 2.03033 12.132 2.0042 12 2.0042C11.868 2.0042 11.7373 2.03033 11.6154 2.0811C11.4936 2.13187 11.383 2.20627 11.29 2.29999L3.57999 10.19C3.39343 10.3781 3.24609 10.6013 3.14652 10.8468C3.04695 11.0923 2.99715 11.3551 2.99999 11.62V20C2.99922 20.5119 3.19477 21.0046 3.54637 21.3767C3.89797 21.7488 4.37885 21.9718 4.88999 22H7.99999V13C7.99999 12.7348 8.10535 12.4804 8.29289 12.2929C8.48042 12.1054 8.73478 12 8.99999 12H15C15.2652 12 15.5196 12.1054 15.7071 12.2929C15.8946 12.4804 16 12.7348 16 13V22H19.11C19.6211 21.9718 20.102 21.7488 20.4536 21.3767C20.8052 21.0046 21.0008 20.5119 21 20V11.62C21.0008 11.0829 20.7928 10.5666 20.42 10.18Z"
            />
        </svg>
    </g>
    <g id="arrowButton1">
        <path d="M7 6C7.26522 6 7.51957 5.89464 7.70711 5.70711C7.89464 5.51957 8 5.26522 8 5C8 4.73478 7.89464 4.48043 7.70711 4.29289C7.51957 4.10536 7.26522 4 7 4H5C4.73478 4 4.48043 4.10536 4.29289 4.29289C4.10536 4.48043 4 4.73478 4 5V19C4 19.2652 4.10536 19.5196 4.29289 19.7071C4.48043 19.8946 4.73478 20 5 20H7C7.26522 20 7.51957 19.8946 7.70711 19.7071C7.89464 19.5196 8 19.2652 8 19C8 18.7348 7.89464 18.4804 7.70711 18.2929C7.51957 18.1054 7.26522 18 7 18H6V6H7Z"
        />
        <path d="M20.82 11.42L18 7.42C17.8471 7.20441 17.615 7.05814 17.3545 7.01317C17.0941 6.9682 16.8264 7.02818 16.61 7.18C16.5018 7.25579 16.4098 7.35224 16.3391 7.46381C16.2684 7.57537 16.2206 7.69982 16.1982 7.82999C16.1759 7.96015 16.1796 8.09344 16.2091 8.22217C16.2386 8.3509 16.2933 8.47252 16.37 8.58L18.09 11H10C9.73478 11 9.48043 11.1054 9.29289 11.2929C9.10536 11.4804 9 11.7348 9 12C9 12.2652 9.10536 12.5196 9.29289 12.7071C9.48043 12.8946 9.73478 13 10 13H18L16.2 15.4C16.1212 15.5051 16.0639 15.6246 16.0313 15.7518C15.9987 15.879 15.9915 16.0114 16.01 16.1414C16.0286 16.2714 16.0726 16.3965 16.1395 16.5095C16.2064 16.6225 16.2949 16.7212 16.4 16.8C16.5731 16.9298 16.7836 17 17 17C17.1552 17 17.3084 16.9639 17.4472 16.8944C17.5861 16.825 17.7069 16.7242 17.8 16.6L20.8 12.6C20.9281 12.4309 20.999 12.2254 21.0026 12.0133C21.0062 11.8011 20.9423 11.5934 20.82 11.42Z"
        />
    </g>
    <g id="arrowButton1">
        <path d="M7 6C7.26522 6 7.51957 5.89464 7.70711 5.70711C7.89464 5.51957 8 5.26522 8 5C8 4.73478 7.89464 4.48043 7.70711 4.29289C7.51957 4.10536 7.26522 4 7 4H5C4.73478 4 4.48043 4.10536 4.29289 4.29289C4.10536 4.48043 4 4.73478 4 5V19C4 19.2652 4.10536 19.5196 4.29289 19.7071C4.48043 19.8946 4.73478 20 5 20H7C7.26522 20 7.51957 19.8946 7.70711 19.7071C7.89464 19.5196 8 19.2652 8 19C8 18.7348 7.89464 18.4804 7.70711 18.2929C7.51957 18.1054 7.26522 18 7 18H6V6H7Z"
        />
        <path d="M20.82 11.42L18 7.42C17.8471 7.20441 17.615 7.05814 17.3545 7.01317C17.0941 6.9682 16.8264 7.02818 16.61 7.18C16.5018 7.25579 16.4098 7.35224 16.3391 7.46381C16.2684 7.57537 16.2206 7.69982 16.1982 7.82999C16.1759 7.96015 16.1796 8.09344 16.2091 8.22217C16.2386 8.3509 16.2933 8.47252 16.37 8.58L18.09 11H10C9.73478 11 9.48043 11.1054 9.29289 11.2929C9.10536 11.4804 9 11.7348 9 12C9 12.2652 9.10536 12.5196 9.29289 12.7071C9.48043 12.8946 9.73478 13 10 13H18L16.2 15.4C16.1212 15.5051 16.0639 15.6246 16.0313 15.7518C15.9987 15.879 15.9915 16.0114 16.01 16.1414C16.0286 16.2714 16.0726 16.3965 16.1395 16.5095C16.2064 16.6225 16.2949 16.7212 16.4 16.8C16.5731 16.9298 16.7836 17 17 17C17.1552 17 17.3084 16.9639 17.4472 16.8944C17.5861 16.825 17.7069 16.7242 17.8 16.6L20.8 12.6C20.9281 12.4309 20.999 12.2254 21.0026 12.0133C21.0062 11.8011 20.9423 11.5934 20.82 11.42Z"
        />
    </g>
    <g id="eye1">
        <path d="M21.87 11.5C21.23 10.39 17.71 4.81999 11.73 4.99999C6.2 5.13999 3 9.99999 2.13 11.5C2.04223 11.652 1.99603 11.8245 1.99603 12C1.99603 12.1755 2.04223 12.348 2.13 12.5C2.76 13.59 6.13 19 12.02 19H12.27C17.8 18.86 21.01 14 21.87 12.5C21.9578 12.348 22.004 12.1755 22.004 12C22.004 11.8245 21.9578 11.652 21.87 11.5ZM12.22 17C7.91 17.1 5.1 13.41 4.22 12C5.22 10.39 7.83 7.09999 11.83 6.99999C16.12 6.88999 18.94 10.59 19.83 12C18.8 13.61 16.22 16.9 12.22 17Z"/>
        <path d="M12 8.5C11.3078 8.5 10.6311 8.70527 10.0555 9.08986C9.47993 9.47444 9.03133 10.0211 8.76642 10.6606C8.50152 11.3001 8.4322 12.0039 8.56725 12.6828C8.7023 13.3618 9.03564 13.9854 9.52513 14.4749C10.0146 14.9644 10.6383 15.2977 11.3172 15.4327C11.9961 15.5678 12.6999 15.4985 13.3394 15.2336C13.9789 14.9687 14.5256 14.5201 14.9101 13.9445C15.2947 13.3689 15.5 12.6922 15.5 12C15.5 11.0717 15.1313 10.1815 14.4749 9.52513C13.8185 8.86875 12.9283 8.5 12 8.5ZM12 13.5C11.7033 13.5 11.4133 13.412 11.1666 13.2472C10.92 13.0824 10.7277 12.8481 10.6142 12.574C10.5007 12.2999 10.4709 11.9983 10.5288 11.7074C10.5867 11.4164 10.7296 11.1491 10.9393 10.9393C11.1491 10.7296 11.4164 10.5867 11.7074 10.5288C11.9983 10.4709 12.2999 10.5006 12.574 10.6142C12.8481 10.7277 13.0824 10.92 13.2472 11.1666C13.412 11.4133 13.5 11.7033 13.5 12C13.5 12.3978 13.342 12.7794 13.0607 13.0607C12.7794 13.342 12.3978 13.5 12 13.5Z"/>

    </g>
    <g></g>
    <g></g>
    <g></g>


</svg>